<?xml version="1.0" encoding="UTF-8"?>
<svg id="CODES" xmlns="http://www.w3.org/2000/svg" viewBox="0 0 400 250">
  <path d="M183.06,205.66c-6.51.78-13.02,1.59-19.48,2.73-15.22,2.58-30.27,6.06-45.18,10.03-5.24,1.45-10.52,2.99-15.74,4.49-5.28,1.53-10.55,2.9-15.87,4.26-.86.35-2.5.14-2.51,1.37v.06c.25.99,1.2.66,1.9.46.23-.06.5-.12.73-.18.11-.03.32-.08.43-.11l-.07.05h0c-.35.28-.71.66-.65,1.15.2.97,1.37,1.09,2.17,1.27,5.44,1.1,10.97,1.58,16.49,2.06,3.4.38,6.81.56,10.22.76,5.09.35,10.18.57,15.27.89,8.46.51,16.89,1.58,25.34,2.2,10.57.86,21.17,1.43,31.76,2.14,5.73.39,11.43,1.01,17.16,1.44,3.49.26,6.99.53,10.49.65,2.02.06,4.1.12,6.12.17,4.92.14,9.86.29,14.79.23,6.96-.02,13.92-.1,20.87-.43,4.07-.15,8.18-.45,12.23-.98,1.69-.29,3.42-.5,5.09-.88,1.65-.36,3.37-.72,4.99-1.21,1.44-.4,3-.81,4.4-1.31,5.67-1.93,14.11-6.81,13.78-13.68-1.43-7.02-7.89-11.33-13.94-14.32-4.38-2.13-9.21-3.33-13.99-4.27-2.87-.6-5.78-1.02-8.68-1.41-6.5-.89-13.06-1.45-19.61-1.64-3.29-.15-6.61-.1-9.91-.08-3.53.12-7.07.28-10.59.57-12.69.89-25.36,2.08-38,3.52Z" fill="#2620e7"/>
  <path d="M285.09,137.56c-.43,3.24-1.07,6.55-1.57,9.79-.57,3.34-1.01,6.72-1.91,9.99v.02s0-.02,0-.02v.02s-.02.06-.03.09c0-.03.02-.06.03-.09-.96,2.8-1.81,5.69-3.17,8.33-.13.19-.27.38-.43.55-.1.09-.21.17-.33.24-.14.07-.29.15-.44.2-.02,0-.04,0-.06,0-.03,0-.06-.01-.09-.01-.11-.04-.22-.09-.32-.15-.44-.3-.85-.66-1.23-1.04-.51-.6-.87-1.3-1.25-1.99-.37-.81-.66-1.67-.92-2.52-.03-.12-.06-.25-.09-.37.02.08.04.16.06.24-.1-.44-.22-.88-.33-1.33-.39-2.03-.43-4.11-.42-6.17,0-.05,0-.09,0-.14.2-1.4.87-2.68.81-4.12.1-.61.26-1.21.43-1.81,1.02-3.17,2.45-6.32,4.91-8.64.72-.62,1.5-1.16,2.33-1.64.89-.46,1.81-.87,2.77-1.16.37-.07.74-.09,1.12-.09.13,0,.25.02.37.04-.09.59-.18,1.19-.22,1.78ZM295.99,65.9h0c0,.1-.02.19-.03.28,0-.1.02-.19.03-.28ZM329.51,8.26c-10.36.46-16.98,9.34-21.16,17.92-4.09,7.22-7.22,14.96-9.05,23.07-1.37,5.25-2.69,10.56-3.23,15.98,0,.01,0,.04-.01.05-.05.2-.07.41-.06.61-.19,1.54-.43,3.07-.6,4.61.01-.1.02-.2.03-.3-.02.22-.05.43-.07.64v-.1c-.07.81-.14,1.63-.18,2.45-1.74,10.68-3.23,21.4-4.94,32.09-1.34-.23-2.89-.01-4.08.65-1.11.29-2.15.8-3.18,1.28-2.97,1.09-5.7,2.91-8.13,4.92-.22.17-.43.35-.64.52.16-.13.32-.26.48-.4-3.07,2.14-5.46,5.08-7.62,8.11.06-.08.11-.16.17-.24-.29.4-.57.8-.85,1.2-2.89,4.31-5.65,8.83-7.48,13.7-.78,1.19-1.28,2.52-1.75,3.85-1.38,2.93-2.35,6.03-2.71,9.25-.77,2.02-1.06,4.17-1.33,6.3.01-.11.02-.22.03-.34-.52,3.47-.32,6.99-.04,10.47.1,3.33.9,6.65,2.16,9.73.86,2.27,1.85,4.55,3.47,6.4-.13-.16-.26-.32-.39-.48.82,1.05,1.65,2.13,2.79,2.86.5.38.97.8,1.49,1.15.33.34.72.62,1.17.78.72.54,1.56.88,2.38,1.22,1.52.79,3.17,1.25,4.82,1.66,2.63,1.2,5.67,1.45,8.53,1.77,3.33.32,6.76.56,10.09.13,2.81-.49,5.47-1.62,8.12-2.65,1.45-.49,2.85-1.13,4-2.17,2.46-1.58,4.69-3.6,6.21-6.12,1.35-1.95,2.61-3.99,3.39-6.24-.01.03-.02.07-.03.1.23-.78.58-1.52.78-2.3.54-1.58,1.24-3.1,1.54-4.75.27-.74.45-1.5.62-2.27,1.03-3.62,1.42-7.43,1.68-11.18h0s0,0,0,0h0s0-.02,0-.02c.12-1.56,0-3.12-.12-4.67.48-3.84.32-7.7.61-11.55.69-6.62,1.37-13.25,2-19.88,1.32-7.47,3.23-14.8,5.97-21.89,2.32-5.72,4.82-11.38,7.4-16.99,1.34-2.17,2.5-4.45,3.74-6.68,2.44-3.95,4.65-8.04,7.36-11.84,2.42-3.75,4.17-7.87,6.06-11.89,1.63-3.18,3.15-6.48,4.07-9.94.42-1.69.14-3.43.06-5.14.03-5.26-2.47-10.15-5.64-14.22-2.2-3.31-5.3-5.83-8.92-7.42-2.78-1.4-5.86-2.07-8.98-1.82Z" fill="#2620e7"/>
  <path d="M368.7,96.12c-2.43,3.31-4.57,6.91-7.68,9.64h0s0,0,0,0c-.92,1.24-2.07,2.3-3.12,3.43-.82.8-1.63,1.69-2.69,2.16-1.1.51-2.44-.09-2.94-1.16-.35-.8-.33-1.73-.23-2.59.18-1.28.61-2.5,1.2-3.64v.02c.05-.13.12-.27.18-.4-.05.09-.09.18-.13.27,2.4-5.03,5.57-9.94,10.29-13.07-.15.1-.31.21-.46.31.26-.18.49-.43.8-.55h.02c1.84-1.87,5.72-1.72,6.14,1.3.26,1.55-.53,3.01-1.38,4.26ZM380.37,60.54c-.72.01-1.42.19-2.08.47-4.89.88-9.01,3.68-12.91,6.58-.75.69-1.51,1.38-2.27,2.07l-.02.02c-2.72,2.57-5.52,5.04-7.98,7.86-.97,1.15-1.97,2.27-2.97,3.39-.98,1.28-1.97,2.56-3.08,3.73-.76.92-1.41,1.93-2.17,2.85-2.99,4.19-5.57,8.71-7.87,13.32-.33.37-.51.85-.66,1.31-.92,1.62-1.86,3.25-2.44,5.03-.34.65-.67,1.31-.99,1.97-.98,1.69-1.7,3.5-2.3,5.36-.49,1.14-.96,2.29-1.05,3.54-1.08,3.86-3.01,7.48-3.68,11.46-.28,1.23-.41,2.49-.59,3.74-.37,1.62-.56,3.28-.89,4.91h0,0s0,0,0,0c-.11.57-.22,1.14-.33,1.71-.07.2-.11.42-.12.63-.03.16-.06.33-.09.49-1.12,6.19-2.35,12.5-1.95,18.81-.03,3.37.05,6.98,1.56,10.06.63,2.87,1.75,5.58,3.29,8.08,1.14,2.29,2.4,4.63,4.35,6.34.92.96,1.72,2.05,2.77,2.89,2.24,2.09,4.84,3.87,7.9,4.47,3.6,1.29,7.48,1.24,11.22.68,11.45-1.79,21.69-8.8,28.6-17.96,3.52-3.88,5.99-8.65,7.79-13.55,1.81-4.62,2.77-9.51,2.92-14.47.2-5.55-.11-11.39-2.39-16.53,0-.02-.01-.03-.02-.05-.82-2.25-2.08-4.49-4.14-5.82-1.68-1.51-4.05-2.22-6.29-1.99.06,0,.12-.01.18-.02-.24.02-.48.04-.72.06-3.84.17-7.37,2.38-9.81,5.27.13-.15.27-.31.4-.46-1.25,1.3-2.21,2.84-2.96,4.48.1-.19.19-.37.28-.56-.17.34-.34.69-.51,1.04.09-.19.18-.38.28-.56-.97,1.97-1.88,4.01-2.32,6.17-.03.15-.07.3-.1.45,0-.05.02-.1.03-.14-.03.14-.07.28-.12.41-.08.24-.13.49-.17.74-.08.38-.17.76-.24,1.14.03-.13.05-.26.08-.39-.12.58-.31,1.14-.36,1.72-.04.09-.09.18-.13.27-1.03,4.51-2.59,9.08-5.86,12.48-2.58,3.78-8.12,7.18-12.48,4.33-3.39-2.29-5.2-6.55-4.42-10.58.04-.29.08-.57.13-.85h0s0,0,0-.02h0c.2-.95.5-1.87.82-2.79.13-.43.26-.85.4-1.28.49-1.58,1.26-3.06,1.88-4.59v.02s0,0,0,0c0-.02.02-.03.03-.05,0-.02.02-.04.03-.06.15-.29.32-.58.47-.87.03-.07.06-.14.1-.21h0s.05-.09.08-.15c-.03.05-.05.1-.07.15,1.42-2.27,2.67-4.74,4.57-6.65.29-.41.6-.8.92-1.18.16-.21.33-.42.51-.62,0,0,.01-.02.02-.02.1-.13.2-.26.32-.37h0c.23-.26.48-.51.73-.75.02-.04.04-.07.06-.11,6.79-7.15,14.34-13.54,21.82-19.94,4.72-3.99,9.57-7.83,13.95-12.2.41-.3.82-.63,1.14-1.04.45-.28.8-.68,1.11-1.1.35-.28.66-.6.94-.95.26-.28.55-.54.8-.83-.04.04-.07.08-.11.12.14-.15.27-.31.4-.47-.09.11-.19.22-.28.33.18-.21.35-.42.53-.63,1.02-1.21,3.65-5.63,4.24-7.36,0-.01.05-.11.16-.36,0,.02-.02.04-.03.07.66-1.51,1.18-3.14,1.36-4.79,2.63-13.47-6.19-20.7-19.16-17.72Z" fill="#2620e7"/>
  <path d="M324.68,150.34v-.05s0,.05,0,.05Z" fill="#2620e7"/>
  <path d="M250.92,67.93h0,0s0-.01,0-.01h.01ZM216.35,46.15v.02s0,0,0,0v-.02s0,0,0,0ZM216.35,46.15h0s0,0,0,0ZM229.55,31.36c-3.27.64-6.62,1.68-8.93,4.23l.02-.02s-.02.02-.02.02h0c-1.16,1.12-1.92,2.55-2.66,3.96v.03s-.01,0-.01,0v.03s-.01,0-.01,0h0s-.01.05-.02.06h0s-.02.06-.04.08c.01-.02.02-.04.04-.07-.01.03-.03.05-.04.07h0c-.58.98-.93,2.08-1.3,3.15l-.05.54c-.04.58-.06,1.16-.1,1.74h0c-.02.32-.04.64-.06.97h0s0,0,0,0h0s0-.04,0-.04v.03s0,0,0,0h0s0,0,0,0v.03s0,0,0,0v.02s0-.01,0-.01c-.02.3-.04.6-.07.9-.09,2.47-.18,4.95.28,7.39h-.01c.23,1.51.47,3.03.77,4.53h0c.13.6.27,1.2.4,1.81v.02c.2.86.4,1.72.57,2.59h0s0,0,0,0c-.03-.19-.07-.38-.11-.56.06.28.11.55.17.83.25,1.26.56,2.5.79,3.77.19.92.39,1.84.57,2.76,0-.02,0-.04-.01-.06.22,1.14.51,2.26.74,3.4-.01-.05-.02-.1-.03-.15,2.69,12.41.9,25.29-1.7,37.56-.68,3.66-1.65,7.24-2.26,10.91-.78,2.83-1.9,5.57-2.41,8.47-3.26,9.17-6.88,18.27-8.7,27.86l.03-.12-.03.13h0c-.68,3.24-1.29,6.61-.81,9.91,1.32,6.13,7.23,7.7,12.77,6.89,7.68-.66,13.69-5.64,17.52-12.1.38-.57.74-1.16,1.04-1.78,2.36-4.39,4.62-8.98,5.52-13.92,2.44-7.36,3.95-15.21,3.35-22.97,0,.02,0,.04,0,.06-.2-2.89-.2-5.8-.75-8.65-.6-4.81-1.17-9.66-2.57-14.31-.88-3.15-2.12-6.18-3.07-9.3-.79-2.91-1.52-5.83-2.27-8.74,0,.05.02.1.03.15-.01-.05-.02-.1-.03-.15-.29-2.12-.64-4.23-1.19-6.31-.38-2.14-.49-4.33-.37-6.5.03-.35.05-.7.08-1.05-.41-2.77-.5-6.06,1.86-8.02-.12.11-.24.21-.36.31.13-.12.24-.25.35-.39.9-1.14,2.38-1.43,3.74-1.13,4.37.66,7.8,4.07,10.48,7.37.08.09.16.18.24.27h0s0,0,0,0h0s0,0,0,0h.01s.02.04.02.04h0c1.99,2.32,3.21,5.2,3.5,8.25-.12.88-.25,1.75-.42,2.62-.39,1.78-.8,3.57-1.16,5.36v-.03s-.04.23-.04.23c-.41,2.74-1.13,5.5-.94,8.28.21,1.59.79,3.2,1.65,4.55.6,2.04,1.66,4.22,3.73,5.08,1,.61,2.18.65,3.32.77.26.01.52,0,.78-.02.12.04.23.09.34.16.56-.06,1.12-.16,1.65-.35,2.01-.42,3.97-1.5,5.28-3.09,2.1-1.51,3.32-3.8,4.61-5.97,1.76-2.97,3.2-6.12,4.17-9.43.49-.98.66-2.07.86-3.14,1.56-6.01,1.67-12.46.14-18.49-.31-1.23-.47-2.62-1.29-3.63-.69-1.68-1.44-3.37-2.51-4.85.03.04.06.09.1.14-3.81-5.63-8.96-10.33-14.64-14.03-.39-.25-.8-.49-1.21-.7-1.47-.9-2.98-1.72-4.51-2.5l.55.29c-3.47-1.92-7.29-3.12-11.13-4.06.07.02.13.03.2.05-1.72-.45-3.47-.81-5.23-1.06-2.64-.91-5.51-1.05-8.29-1.08.08,0,.17,0,.25,0-.38,0-.75.01-1.12.09Z" fill="#2620e7"/>
  <path d="M111.45,193.98h0s.03.02.03.02l-.02-.02ZM70.56,202.97c1.48-2.01,2.96-4.16,3.53-6.63.79-4.64-.03-9.38-.73-13.98-.46-1.28-.92-2.56-1.5-3.8-1.76-5.11-3.15-10.34-4.45-15.59.8-.78,1.58-1.57,2.31-2.41l.03.09c5.14-4.37,10.85-8.03,16.73-11.32,1.37-.73,2.75-1.46,4.18-2.09.49,2.37,1.08,4.72,1.79,7.03,2.64,9.12,5.78,18.15,10,26.67-.02-.05-.05-.09-.08-.13.25.46.51.92.76,1.38-.02-.03-.03-.06-.05-.08.04.07.08.14.12.22h0,0c.09.16.19.33.28.49.18.34.36.68.54,1.01l-.03-.04c.65,1.3,1.46,2.5,2.18,3.75,1.07,1.74,2.25,3.48,3.74,4.89.06.06.12.12.17.18-.02-.03-.05-.05-.07-.08.04.04.08.08.12.12l-.05-.05s.07.07.1.1h0c.11.1.21.21.32.32-.06-.06-.11-.12-.17-.18.38.39.76.77,1.13,1.17h-.01c2.12,2.37,5.58,2.82,8.61,2.81.42-.04.85-.06,1.27-.05,2.57.04,5.72-1.77,5.5-4.65.66-1.19.52-2.59.37-3.89-.22-2.08-.48-4.17-.66-6.26-.55-2.86-1.36-5.67-1.6-8.57-.27-2.42-.52-5.08-.84-7.49v-.09c-.63-4.28-.99-8.59-1.13-12.91-.34-3.23-.29-6.45.04-9.68-.36-5.12-.17-10.33,1.1-15.33.11-1.22.47-2.4.68-3.61v-.03c1.17-6.1,1.74-12.34,3.76-18.24.36-1.74.93-3.42,1.54-5.09,2.97-9.74,7.06-19.14,11.6-28.24,3.22-7.08,6.57-14.13,10.29-20.97l-.07.12s.05-.08.07-.12l-.27.44c1.42-2.63,2.89-5.24,4.38-7.84l.02-.08c.76-1.35,1.48-2.73,2.31-4.03.14-.42.25-.85.37-1.28.15-.44.33-.87.45-1.32,3.23-3.81,1.46-9.54-2.86-11.63-1.95-.93-4.21-.76-6.3-1.18-5.25-1.06-10.59-.43-15.76.74-2.82.65-5.71.97-8.51,1.75-3.88.93-7.71,2.14-11.22,4.06-1.32.38-2.45,1.21-3.38,2.21-1.37,1.01-2.72,2.04-4.08,3.05-.06.04-.11.09-.17.13-.06.02-.12.05-.17.08-1.52.85-2.53,2.38-3.76,3.59-2.07,2.18-4.53,4.26-5.5,7.2-.91,1.56-1.42,3.31-1.97,5.02-.74,1.61-1.37,3.27-1.93,4.96-.61,1.56-1.14,3.15-1.62,4.76h0s0,.02,0,.02c0-.03.02-.05.02-.08l-.02.08c-.03.07-.05.14-.06.21-.08.27-.16.55-.25.82v-.05c-.53,1.8-.86,3.65-1.14,5.5-2.26,7.73-3.4,15.71-4.37,23.69-.6,6.82-.26,13.7.38,20.51.01.39.02.77.04,1.16-.05,2.79.06,5.59.26,8.38v.02c-1.85.85-3.67,1.77-5.49,2.68.02-.01.04-.02.07-.03-3.54,1.74-7.01,3.63-10.3,5.81-.22.13-.45.27-.67.41-2.77,1.59-5.49,3.28-8.14,5.07-.98-5.15-1.53-10.37-2.1-15.58-.25-7.23-.68-14.47-.49-21.71.01-.08.01-.15,0-.23.02-.54.03-1.07.05-1.61,0,.09,0,.17,0,.26.05-1.8.15-3.6.17-5.4,0,.06,0,.12,0,.18.03-1.23.03-2.47.07-3.7v.02c0-.09,0-.17,0-.26,0,.06,0,.13,0,.19.12-3.36.04-6.72.13-10.07.07-1.42.2-2.83.19-4.26.04-1.09.12-2.18.13-3.28.2-2.46.33-4.95-.19-7.38-.31-1.27-.62-2.67-1.64-3.56,0-.02-.01-.04-.02-.06-.06-.14-.12-.28-.18-.41-1.65-2.92-5.2-2.37-7.29-.25-1.84,1.25-2.95,3.38-4.21,5.19-2.34,3.32-4.79,6.69-6.59,10.32-.03.17,0,.34.05.5h0c-.8,1.17-1.46,2.42-2.11,3.68-1.05,1.53-2,3.14-2.94,4.74.02-.04.04-.07.07-.11-.08.13-.17.27-.25.4,0,0-.01.02-.02.03-.07.08-.12.17-.15.26-.55.92-1.11,1.84-1.69,2.75.04-.07.09-.14.13-.22-3.52,5.77-6.65,11.78-9.49,17.92-3.56,6.87-6.63,14.01-8.5,21.54-.31,1-.62,1.99-.91,2.99l.08-.25c-1.75,6.35-3.68,13.08-2.25,19.67.04.16.08.33.13.49,0,.23,0,.46,0,.69,0,.02,0,.03.01.05v.04s.04.09.05.13h0c.01.06.03.11.05.16h0c.2.64.42,1.27.7,1.88h0s.02.04.03.06h0c.18.41.37.82.57,1.23v-.02c.12.23.23.46.34.68h0c.03.07.06.12.09.18.31.55.66,1.07,1.03,1.58h0c.23.3.48.58.73.86h0s.05.05.07.08c.22.21.45.4.69.59,1.99,1.12,4.18,2.39,5.18,4.53.04.07.08.14.1.22.03.09.05.17.07.26.03.04.05.07.08.11,1.12,1.71,1.24,3.9,1.09,5.88-.29,2.27-1.54,4.25-2.56,6.25-1.92,3.32-4.04,6.54-6.28,9.66h0c-.56.77-1.12,1.54-1.64,2.34h0c-1,1.5-1.97,3.01-2.94,4.53h0c-.14.22-.28.43-.41.65-.74,1.27-1.46,2.56-2.13,3.87h0c-.06.13-.13.25-.2.38h0c-.27.53-.53,1.07-.8,1.6h0c-.59,1.21-1.16,2.41-1.72,3.62-.05.11-.1.22-.15.33h0c-1.33,3.09-2.7,6.16-3.63,9.39-.71,2.43-.77,4.99-.99,7.49-.01,1.57.05,3.15.38,4.68.23.87.56,1.72.95,2.53.22.33.47.64.73.93.29.28.59.52.91.76h-.01c.14.1.28.19.42.3.05.03.1.06.15.09h.01c.8.42,1.62.81,2.47,1.11,1.48.31,2.98.6,4.5.65.39,0,.77-.02,1.16-.06.04,0,.08-.02.13-.03.63-.06,1.25-.15,1.86-.29,1.32-.24,2.69-1.18,4.03-.64.02,0,.04.02.06.03,5-1.06,10.04-2.05,14.81-3.92,4.24-1.65,8.12-4.09,12.28-5.94,4.21-1.64,8.22-3.76,12.22-5.85,4.93-2.63,9.81-5.77,13.49-10.02Z" fill="#2620e7"/>
  <path d="M184.48,118.96l-.02.02c.06-.05.11-.1.16-.15-.05.04-.09.08-.14.13ZM168.4,94.06c1.23-1.43,2.6-2.73,3.96-4.03.59-.51,1.19-1.03,1.86-1.44.39-.17.79-.29,1.2-.39.21-.03.43-.05.64-.05.4.05.8.13,1.18.24.36.15.71.34,1.05.55.26.2.51.4.74.64.21.25.4.52.57.8.1.24.19.49.26.74.03.23.06.47.06.71-.15,1.07-.41,2.12-.75,3.14-1.84,5.35-4.45,10.4-7.46,15.17-1.29,1.83-2.64,3.6-4.02,5.36-.08.08-.15.17-.23.24.05-.04.09-.08.14-.12-.28.28-.7.49-.75.92-.6.71-1.28,1.37-1.96,2.01-1.28,1-2.63,1.93-4.06,2.7-.14.06-.29.11-.44.15l-.63.12c-.26.04-.53.07-.8.08-.13-.02-.26-.05-.39-.08l-.11-.05c-.15-.13-.29-.26-.43-.4-.34-.44-.63-.93-.89-1.42-.18-.39-.34-.79-.46-1.2-.02-.12-.03-.23-.04-.35.24-1.96.8-3.87,1.43-5.73,1.84-4.77,4.34-9.27,6.86-13.7,1.07-1.61,2.22-3.15,3.48-4.61ZM173.13,186.03c2.58-1.28,4.87-3.03,6.98-4.96h0c2.32-2.2,4.29-4.8,6.03-7.48,2.82-4.12,5.4-8.48,7.24-13.13,0,.02,0,.03-.01.04.07-.19.13-.39.19-.59.53-1.47,1.18-2.89,1.69-4.37-.02.05-.04.11-.06.16.05-.14.1-.29.15-.43,1.74-3.57,3.19-7.38,3.79-11.32,0-.02,0-.05,0-.08-.15-1.27-.23-2.55-.43-3.81-.32-1.15-.59-2.32-1.03-3.43-.07-.13-.15-.25-.22-.37h0c-.29-.49-.57-.97-.87-1.44h0c-.19-.3-.38-.59-.6-.87-.3-.3-.64-.55-.98-.81-.38-.23-.78-.41-1.19-.57-.39-.11-.78-.22-1.19-.26-.42-.02-.83-.01-1.24.02-4.83-1.28-9.77,1.19-13.43,4.21l.21-.16c-4.3,3.51-6.53,8.76-9.09,13.54-2.13,3.53-4.3,7.04-6.63,10.44-.53.69-1.11,1.34-1.77,1.92-.79.48-1.59.97-2.52,1.09-.81.22-1.65.52-2.5.38-.17-.03-.34-.07-.5-.13-.43-.18-.86-.38-1.25-.64-.16-.13-.32-.27-.46-.42-.25-.36-.44-.75-.62-1.15-.34-.94-.54-1.92-.7-2.9-.07-.73-.04-1.48.04-2.21.29-2.03,1.05-3.96,1.79-5.85.03-.05.05-.11.06-.16,0,0,0-.02.01-.03.04-.07.07-.14.09-.22.22-.52.42-1.05.63-1.57l-.02.06c4.03-8.45,10.68-15.3,17.96-21.05,1.6-.92,3.14-1.94,4.6-3.08.05-.01.09-.03.14-.04.1-.09.19-.19.29-.28,2.28-1.66,4.68-3.19,6.76-5.1.03-.03.06-.06.09-.09l-.02.02c.78-.69,1.54-1.39,2.31-2.09.36-.31.72-.6,1.05-.93,4.55-3.97,8.85-8.26,12.34-13.21,4.67-5.51,7.88-12.35,8.25-19.63,0,.02,0,.04,0,.06.35-6.5-.21-13.26-3.24-19.13-3.48-10.43-16.3-13.51-25.54-8.99-.12.02-.24.06-.35.11l.04-.02s-.08.04-.11.06l-.05.03c-.11.06-.23.12-.34.17.01,0,.02,0,.03-.01-3.83,1.76-7.35,4.23-10.36,7.17.01-.01.03-.02.04-.03-2.22,2.03-4.07,4.45-5.86,6.87.04-.07.09-.14.14-.21-.1.15-.21.29-.32.44-1.52,1.63-2.89,3.41-4.14,5.25.05-.07.09-.14.14-.21-4.27,5.95-7.63,12.5-10.79,19.09-5.12,8.84-8.28,18.7-9.77,28.79-1.65,6.09-2.72,12.33-3.25,18.62-.59,6.14-.75,12.35.11,18.47.7,5.51,1.34,11.19,3.55,16.32l-.02-.03c.04.08.07.15.11.22-.02-.04-.04-.08-.06-.12.21.42.41.84.62,1.25-.04-.08-.07-.15-.11-.22.36.73.72,1.45,1.1,2.17.64,1.25,1.32,2.49,2.15,3.63.8,1.16,1.83,2.12,2.88,3.05.59.47,1.15,1.03,1.9,1.21.05.03.1.06.16.09.17.31.47.53.8.66,1.48.61,3.05.97,4.63,1.19,4.23.6,8.6.88,12.78-.13-.09.02-.17.03-.25.05,2.82-.56,5.56-1.51,8.08-2.9Z" fill="#2620e7"/>
  <polygon points="142.67 181.87 142.66 181.83 142.65 181.82 142.67 181.87" fill="#2620e7"/>
  <polygon points="278.35 157.01 278.35 157 278.35 157.01 278.35 157.01" fill="#2620e7"/>
  <path d="M243.88,125.95c0,.08,0,.17.02.26l-.02-.26Z" fill="#2620e7"/>
</svg>