<?xml version="1.0" encoding="UTF-8"?>
<svg id="herde-logo26-2620e7" xmlns="http://www.w3.org/2000/svg" viewBox="0 0 1700.79 995.74">
  <defs>
    <style>
      .cls-1 {
        fill: #2620e7;
      }
    </style>
  </defs>
  <path class="cls-1" d="M314.91,625.66c30-26.96,62.6-46.04,80.97-55.76,3.39,16.85,7.54,34.42,12.61,53.52,22.28,84.02,61.74,134.68,75.28,150.25,1.41,1.85,2.97,3.57,4.69,5.14.01.01.03.03.03.03,0,0,3.32,3.38,9.05,6.14.1.05.2.1.29.14.28.13.57.26.86.39,4.77,2.13,10.05,3.33,15.62,3.33,21.16,0,38.31-17.15,38.31-38.31,0-2.52-.25-4.98-.71-7.37-.01-.08-.03-.16-.04-.24-.01-.06-.02-.12-.04-.18-.18-.95-.34-1.49-.34-1.49,0,0,0-.01,0-.02-.49-1.95-1.12-3.85-1.89-5.67-4.27-14.1-14.63-55.89-19.39-141.63-6.26-112.92,11.46-181.18,58-274.27,39.3-78.61,84.4-157.4,90.08-166.86,2.37-3.95,4.82-8.41,6.64-13.32,1.95-4.75,3.03-9.94,3.03-15.39,0-22.25-17.93-40.3-40.12-40.52-.26,0-.41-.01-.41-.01,0,0-106.1-13.42-186.79,56.95-.01.01-.03.02-.04.04-9.88,8.1-18.51,18.05-25.34,29.72-.87,1.49-1.7,2.99-2.49,4.5-39.8,65.98-51.09,173.64-50.89,234.03.07,21.85.51,41.63,1.49,60.37-33.95,16.71-63.96,35-88.82,51.89-.37-2.81-.75-5.7-1.13-8.67-5.59-43.44-7.88-114-7.1-143.99.78-29.99,1.88-103.69,2.23-113.54.21-5.93-4.69-22.98-21.1-27.53-15.23-4.22-25.96,2.79-30.75,9.23-.15.2-.32.44-.51.69-.76.93-1.47,1.9-2.11,2.92-15.56,21.7-80.45,116.39-115.29,218.97-29.3,86.25-27.63,100.24-27.74,109.58-.1,8.56,1.76,30.7,13.64,45.52,2.13,2.65,4.09,4.99,5.89,7.03.43.5.87.98,1.31,1.47.53.59,1.05,1.14,1.54,1.67.04.04.07.08.11.12,2.91,3.09,5.22,5.21,6.85,6.44,3.03,2.3,8.61,5.9,12.32,9.9,2.09,2.25,6.26,7.17,8.31,14.37,2.3,8.07,3.57,14.47.73,24.28-3.59,12.41-19.98,37.01-25.73,46.68-6.66,10.62-15.71,25.68-30.38,46.93-7.19,10.41-18.46,22.41-25.5,42.54-.81,2.02-1.47,4.12-1.98,6.28-.11.4-.23.8-.34,1.2-5.33,19.89,7.66,42.84,27.58,49.25.06.02.13.04.19.06,1.73.62,3.5,1.15,5.32,1.56,31.81,8.53,77,7.15,122.94-3.04,48.98-10.99,69.78-22.44,97.3-38.94.32-.19.64-.38.96-.57.44-.27.88-.53,1.33-.8,31.88-19.17,35.62-50.51,36.37-61.84.75-11.34-.87-32.97-7.65-57.27-11.71-41.93-18.85-56.15-27.23-85.89Z"/>
  <path class="cls-1" d="M865.36,659.2c-.03.47-.04.93-.06,1.4-.14,1.39-.22,2.8-.22,4.22,0,20.65,15.45,37.68,35.41,40.2.3.04.6.08.9.11.06,0,.12.01.19.02,1.7.18,3.38.26,5.03.2,25.87-.85,71.79-13.04,103.17-91.75,34.57-86.7,23.11-150.67,4.6-215.53-18.51-64.87-34.68-129.72-24.36-151.04,7.71-15.95,24.28-13.82,30.13-10.26,11.36,6.91,47.23,27.74,49.92,55.23,2.83,28.88-21.55,62.79-7.05,93.25.09.2.19.4.28.59.15.3.3.59.46.89.12.23.24.47.37.71,0,0,0,.02.01.03.03.06.07.11.1.17.3.55.62,1.09.95,1.62.2.33.41.65.62.97.18.27.35.54.54.8.24.35.48.69.73,1.03.18.25.37.49.56.73.25.32.49.64.74.95.44.53.89,1.06,1.36,1.57.06.07.12.13.19.19.48.52.98,1.03,1.48,1.52.04.03.07.07.11.1,5.56,5.39,12.66,9.2,20.58,10.71.28.05.56.1.84.15.32.05.65.11.98.16,6.21.93,12.69.42,18.95-1.77.34-.12.67-.23,1.01-.35.14-.05.28-.11.42-.16,6.52-2.51,12.23-6.65,16.62-11.93.26-.3.54-.58.8-.89,35.11-41.84,53.91-115.79,28.93-168.17-29.34-61.53-111.55-108-185.17-108-1.07,0-2.14.03-3.19.09-14.85.71-26.16,6.27-34.52,13.18-7.83,6.29-14.06,14.49-17.97,23.9-.3.72-.56,1.38-.78,1.99-.92,2.47-1.68,5.02-2.28,7.63-2.36,8.3-4.11,22.42,7.7,89.25,15.16,85.79,17.47,138.38-24.57,282.01-30.21,103.22-33.04,104.19-34.46,124.29Z"/>
  <path class="cls-1" d="M1215.24,852.59c-3.25-3.99-7.11-7.47-11.45-10.3-20.1-14.84-55.27-28.71-106.59-38.71-157.54-30.7-347.59-4.96-464.13,10.3-110.35,14.45-233.53,50.82-241.94,54.38-.02,0-.03.01-.05.02-4.35,1.55-7.56,5.6-7.79,10.49-.12,2.51.56,4.86,1.81,6.83.85,1.5,2.11,2.69,3.54,3.58.98.63,2.05,1.13,3.2,1.45.06.02.13.04.19.06.04,0,.07.02.11.03.24.07.49.14.73.19,9.71,2.25,84.21-1.76,171.59,6.99,234.99,23.53,295.19,34.54,404.2,46.3,2.46.39,4.96.65,7.49.8.25.03.49.05.74.08,100.11,10.59,193.87,5.17,228.5-19.93,23.48-17.01,33.69-45.36,9.85-72.55,0,0,0-.01-.01-.02Z"/>
  <path class="cls-1" d="M580.68,540.41c-10.21,66.77,3.32,129.44,11.34,155.47,1.13,3.65,2.55,7.3,4.24,10.89,5.4,12.77,13.84,24.48,25.25,33.94,14.24,11.79,31.06,18.42,48.17,20.09,9.44,1.03,19.38.47,29.64-2.05.11-.03.23-.06.34-.08.24-.06.47-.11.71-.17,65.91-17.05,78.36-39.15,98.69-69.1,25.82-39.98,33.91-69.5,37.6-80.96s4.97-27.61,4.83-32.45c-.32-11.37-3.84-21.85-10.27-30.21-3.87-5.15-8.94-9.71-15.33-13.2-.22-.12-.44-.24-.66-.36-.14-.07-.27-.15-.41-.23-.17-.09-.33-.16-.5-.24-.57-.29-1.14-.57-1.72-.83-.33-.16-.67-.31-1-.45-.26-.11-.51-.22-.77-.33-27.05-11.48-49.79,3.44-59.59,17.17-9.71,13.61-13.41,20.21-31.87,55.93-12.32,23.82-20.13,34.49-30.1,43.28-8.07,7.11-20.19,9.11-29.44,1.31-3.34-2.82-7.91-8.32-7.79-16.63.49-33.34,17.22-59.14,26.98-72.21,25.33-33.9,45.32-45.2,101.38-84.51,32.06-22.48,88.39-61.57,101.08-129.74,10.41-55.9-3.63-92.72-19.82-114.18-2.75-3.77-5.83-7.28-9.2-10.49-4.98-4.86-9.77-8.34-13.72-10.54-.86-.48-1.73-.94-2.6-1.39-6.3-3.43-13.13-5.99-20.33-7.57-.1-.02-.2-.05-.3-.07-.31-.07-.62-.14-.93-.2-15.13-3.29-31.3-2.27-46.86,5.12-22.17,10.53-63.44,32.51-111.32,113.2-53.18,89.64-65.76,156.71-75.71,221.8ZM670.52,465.04c2.58-14.5,23.62-64.19,44.66-92.81,16.87-22.95,27.05-28.93,37.73-27.56,5.74.74,11.85,5.97,14.04,11.49,4.55,16.43-1.63,34.68-9.87,47.02-16.35,25.06-44.25,58.11-67.15,74.08-8.68,6.06-21.55-.28-19.42-12.22Z"/>
  <path class="cls-1" d="M1541.78,455.17c58.99-33.99,93.41-53.85,118.07-107.52,18.74-40.8,1.27-79.21-10.36-92.29-10.93-12.29-26.8-23.73-51.43-21.43-2.65.21-5.25.6-7.79,1.14-9.8,1.94-20.86,5.94-33.36,12.68-59.8,32.2-134.54,98.42-175.22,219.76-40.68,121.34-42.1,174.34-25.27,228.95,7.64,24.78,23.62,49.81,53.21,65.77,45.88,24.74,91.11,11.28,114.27-4.81.56-.39,1.11-.78,1.67-1.17,1.76-1.17,3.48-2.41,5.17-3.68,35.53-25.75,69.62-59.42,87.85-107.39,17.76-46.73,23.18-83.57,19.02-109.65-.67-10.74-4.71-20.58-11.11-28.46-.96-1.29-1.97-2.52-3.04-3.67-2.33-2.5-5.27-4.81-8.64-6.83-7.63-4.96-16.69-7.91-26.46-8.08-1.06-.02-2.12,0-3.17.06-15.51.02-31.47,6.5-41.18,23.81-17.52,31.24-18.45,53.79-40.69,88.85-7.04,11.1-15.32,22.2-23.81,28.9-9.04,7.13-25.44,10.64-40.99.6-6.81-4.4-12.9-13.07-14.46-20.94-5.34-27.48,15.42-66.08,24.66-79.26,16.34-23.3,37.06-43.07,93.06-75.33ZM1465.46,427.31c1.1-7.61,3-13.16,11.23-26.56,11.21-18.26,21.14-29.38,34.77-39.63,9.13-6.87,14.47-7.2,20.24-4.81,5.76,2.39,10.47,9.49,7.97,17.45-2.57,8.18-8.31,17.17-18.52,30.36-10.41,13.43-21.21,23.03-35.23,33.43-6.49,4.81-12.62,3.62-16.48.01-3-2.8-4.54-6.37-3.97-10.25Z"/>
  <path class="cls-1" d="M1471.33,90.66c-16.18-43.99-44.9-61.44-76.94-63.7-.84-.06-1.69-.11-2.54-.14-.44-.02-.89-.04-1.34-.05-.39-.01-.78-.04-1.17-.05-.13,0-.25,0-.38,0-14.46-.28-29.34,2.57-43.74,12.14-1.41.94-2.82,1.93-4.22,2.97-2.77,1.98-5.4,4.14-7.9,6.44-42.11,37.46-77.63,120.21-94.81,233.07-6.75,44.36-15.01,91.09-22.83,132.78,0,0-53.96,4.83-93.69,53.11-45.15,54.88-94.53,147.65-53.93,237.33,21.6,47.7,78.86,56.58,98.44,59.49,39.3,5.83,75.65,2.57,103.47-22.62.06-.05.12-.1.17-.15.04-.04.08-.07.12-.11.09-.08.17-.16.26-.24,3.19-2.84,6.1-5.88,8.75-9.07,19.15-22.56,22.54-47.96,23.49-75.2,2.46-70.75,10.6-122.84,20.1-172.41,14.4-75.15,37.31-135.28,76.11-195.31,60.45-93.51,96.41-133.48,72.57-198.28ZM1157.39,663.98c-9.23-15.01-15.12-50.9-3.07-78.79,11.31-26.19,20.83-29.48,27.58-34.26,4.65-3.29,12.6-4.04,12.75-1.44.35,6.32-1.57,17.65-1.57,17.65,0,0-14.08,89.05-14.62,92.99-.72,5.26-5.01,9.27-10.36,9.67-5.33.39-8.76-2.65-10.71-5.82Z"/>
</svg>